<svg width="168" height="168" viewBox="0 0 168 168" fill="none" xmlns="http://www.w3.org/2000/svg">
<g clip-path="url(#clip0_1_20)">
<path d="M84 168C130.392 168 168 130.392 168 84C168 37.6081 130.392 0 84 0C37.6081 0 0 37.6081 0 84C0 130.392 37.6081 168 84 168Z" fill="url(#paint0_linear_1_20)"/>
<g clip-path="url(#clip1_1_20)">
<mask id="mask0_1_20" style="mask-type:luminance" maskUnits="userSpaceOnUse" x="53" y="132" width="13" height="13">
<path d="M66 132H53V145H66V132Z" fill="white"/>
</mask>
<g mask="url(#mask0_1_20)">
<path d="M66 138.5C66 134.91 63.0899 132 59.5 132C55.9102 132 53 134.91 53 138.5C53 141.744 55.3769 144.433 58.4844 144.921V140.379H56.834V138.5H58.4844V137.068C58.4844 135.439 59.4548 134.539 60.9395 134.539C61.6505 134.539 62.3945 134.666 62.3945 134.666V136.266H61.5749C60.7675 136.266 60.5156 136.767 60.5156 137.281V138.5H62.3184L62.0302 140.379H60.5156V144.921C63.6231 144.433 66 141.744 66 138.5Z" fill="white"/>
</g>
<mask id="mask1_1_20" style="mask-type:luminance" maskUnits="userSpaceOnUse" x="77" y="132" width="14" height="13">
<path d="M90.25 132H77.25V145H90.25V132Z" fill="white"/>
</mask>
<g mask="url(#mask1_1_20)">
<path d="M81.3397 143.782C86.2441 143.782 88.9274 139.717 88.9274 136.194C88.9274 136.08 88.9249 135.963 88.9198 135.849C89.4418 135.471 89.8922 135.004 90.25 134.468C89.7639 134.684 89.2477 134.825 88.7192 134.887C89.2757 134.553 89.6924 134.029 89.892 133.412C89.3685 133.722 88.7959 133.941 88.1989 134.059C87.7967 133.632 87.2649 133.349 86.6857 133.254C86.1065 133.159 85.5121 133.258 84.9946 133.534C84.4771 133.811 84.0651 134.251 83.8225 134.785C83.5799 135.32 83.52 135.919 83.6522 136.491C82.5922 136.438 81.5551 136.162 80.6083 135.683C79.6615 135.203 78.8261 134.53 78.1562 133.706C77.8157 134.293 77.7115 134.988 77.8648 135.649C78.0181 136.31 78.4173 136.888 78.9814 137.265C78.5579 137.252 78.1437 137.138 77.773 136.933V136.966C77.7727 137.582 77.9856 138.179 78.3758 138.656C78.7659 139.133 79.3091 139.459 79.913 139.581C79.5207 139.688 79.109 139.704 78.7097 139.627C78.8801 140.157 79.2117 140.62 79.6581 140.952C80.1046 141.284 80.6436 141.469 81.2 141.48C80.2554 142.222 79.0885 142.625 77.8873 142.623C77.6743 142.623 77.4615 142.609 77.25 142.584C78.4703 143.367 79.8898 143.782 81.3397 143.782Z" fill="white"/>
</g>
<mask id="mask2_1_20" style="mask-type:luminance" maskUnits="userSpaceOnUse" x="101" y="132" width="14" height="13">
<path d="M114.5 132H101.5V145H114.5V132Z" fill="white"/>
</mask>
<g mask="url(#mask2_1_20)">
<path d="M113.538 132H102.46C101.929 132 101.5 132.419 101.5 132.937V144.061C101.5 144.579 101.929 145 102.46 145H113.538C114.068 145 114.5 144.578 114.5 144.063V132.937C114.5 132.419 114.068 132 113.538 132ZM105.357 143.078H103.427V136.872H105.357V143.078ZM104.392 136.027C103.772 136.027 103.272 135.527 103.272 134.91C103.272 134.293 103.772 133.793 104.392 133.793C105.009 133.793 105.509 134.293 105.509 134.91C105.509 135.524 105.009 136.027 104.392 136.027ZM112.578 143.078H110.651V140.062C110.651 139.343 110.638 138.416 109.648 138.416C108.645 138.416 108.493 139.201 108.493 140.011V143.078H106.568V136.872H108.416V137.721H108.442C108.698 137.233 109.328 136.718 110.265 136.718C112.217 136.718 112.578 138.002 112.578 139.673V143.078Z" fill="white"/>
</g>
</g>
</g>
<defs>
<linearGradient id="paint0_linear_1_20" x1="100.5" y1="145.5" x2="76" y2="26.5" gradientUnits="userSpaceOnUse">
<stop stop-color="#5239FA"/>
<stop offset="1" stop-color="white" stop-opacity="0"/>
</linearGradient>
<clipPath id="clip0_1_20">
<rect width="168" height="168" fill="white"/>
</clipPath>
<clipPath id="clip1_1_20">
<rect width="62" height="13" fill="white" transform="translate(53 132)"/>
</clipPath>
</defs>
</svg>
